<svg width="24" height="24" viewBox="0 0 24 24" fill="none" xmlns="http://www.w3.org/2000/svg">
<path d="M5.79478 21.861L5.79478 21.861L5.79172 21.8601C5.68699 21.8293 5.60462 21.7207 5.60957 21.5934C5.83669 18.9385 8.57437 16.7197 12.0006 16.7197C15.429 16.7197 18.1604 18.9321 18.3924 21.602C18.4023 21.7238 18.3334 21.8247 18.2132 21.859L18.2132 21.859L18.2065 21.861C17.3382 22.1224 16.2904 22.2498 15.0006 22.2498H9.00063C7.71082 22.2498 6.66302 22.1224 5.79478 21.861ZM6.23866 20.9268L6.09526 21.4462L6.62401 21.5504C7.32489 21.6884 8.10895 21.7498 9.00063 21.7498H15.0006C15.8923 21.7498 16.6764 21.6884 17.3772 21.5504L17.906 21.4462L17.7626 20.9268C17.1552 18.7264 14.7119 17.2197 12.0006 17.2197C9.28933 17.2197 6.84605 18.7264 6.23866 20.9268Z" fill="white" stroke="#9197B3"/>
<path d="M15 2H9C4 2 2 4 2 9V15C2 18.78 3.14 20.85 5.86 21.62C6.08 19.02 8.75 16.97 12 16.97C15.25 16.97 17.92 19.02 18.14 21.62C20.86 20.85 22 18.78 22 15V9C22 4 20 2 15 2ZM12 14.17C10.02 14.17 8.42 12.56 8.42 10.58C8.42 8.60002 10.02 7 12 7C13.98 7 15.58 8.60002 15.58 10.58C15.58 12.56 13.98 14.17 12 14.17Z" stroke="#9197B3" stroke-width="1.5" stroke-linecap="round" stroke-linejoin="round"/>
<path d="M11.9999 14.42C9.88757 14.42 8.16992 12.6954 8.16992 10.58C8.16992 8.46616 9.88607 6.75 11.9999 6.75C14.1138 6.75 15.8299 8.46616 15.8299 10.58C15.8299 12.6954 14.1123 14.42 11.9999 14.42ZM11.9999 7.25C10.1638 7.25 8.66992 8.74388 8.66992 10.58C8.66992 12.425 10.1626 13.92 11.9999 13.92C13.8372 13.92 15.3299 12.425 15.3299 10.58C15.3299 8.74388 13.836 7.25 11.9999 7.25Z" fill="white" stroke="#9197B3"/>
</svg>
